# xmcd
#
# Track frame offsets: 
#        150
#        22427
#        55652
#        72162
#        94950
#        101990
#        122375
#        144065
#        150200
#
# Disc length: 2397 seconds
#
# Revision: 0
# Processed by: cddbd v1.5.2PL0 Copyright (c) Steve Scherf et al.
# Submitted via: ExactAudioCopy v0.95b3
#
DISCID=70095b09
DTITLE=Jimi Hendrix  - Berkeley Afternoon Rehearsals  FLAC
DYEAR=1900
DGENRE=
TTITLE0=Message To Love
TTITLE1=Blue Suede Shoes
TTITLE2=Hey Baby
TTITLE3=Earth Blues
TTITLE4=Room Full Of Mirrors
TTITLE5=Villanova Junction \\ Keep On Groovin Jam
TTITLE6=Freedom
TTITLE7=Power Of Soul
TTITLE8=Machine Gun
EXTD=
EXTT0=
EXTT1=
EXTT2=
EXTT3=
EXTT4=
EXTT5=
EXTT6=
EXTT7=
EXTT8=
PLAYORDER=
